<?xml version="1.0" standalone="no"?><!DOCTYPE svg PUBLIC "-//W3C//DTD SVG 1.1//EN" "http://www.w3.org/Graphics/SVG/1.1/DTD/svg11.dtd"><svg t="1694660770665" class="icon" viewBox="0 0 1024 1024" version="1.1" xmlns="http://www.w3.org/2000/svg" p-id="4081" xmlns:xlink="http://www.w3.org/1999/xlink" width="200" height="200"><path d="M325.8368 978.7392l-19.2512-16.7936c-79.4624-69.0176-134.144-148.6848-162.6112-236.7488-22.7328-70.4512-28.8768-146.432-18.2272-225.6896 16.7936-123.0848 68.1984-214.2208 78.6432-231.6288-0.8192-5.9392-4.096-21.9136-18.6368-39.3216-24.9856-29.2864-71.2704-48.5376-133.9392-55.5008l-16.5888-1.8432 9.216-13.9264c41.7792-63.0784 174.08-56.7296 217.088-49.5616 46.8992 7.7824 80.0768 1.4336 84.992 0.4096 164.2496-68.4032 310.272-84.5824 434.176-48.128 98.9184 29.0816 153.6 83.5584 172.6464 105.6768 3.8912 4.3008 4.9152 10.6496 2.4576 15.9744-2.4576 5.5296-7.5776 9.216-13.7216 9.4208-22.7328 0.6144-81.5104 3.2768-144.1792 14.9504l-1.4336 0.2048-1.4336-0.2048c-12.9024-1.2288-17.2032-7.168-18.432-12.0832-2.4576-9.0112 3.6864-18.2272 20.48-30.3104-0.4096-0.8192-1.024-2.048-2.2528-3.6864-8.8064-12.4928-100.352-40.7552-146.8416-9.4208-0.8192 0.6144-1.024 1.4336-1.024 1.8432 0 0.6144 0.2048 1.4336 1.2288 2.048 21.2992 12.4928 48.5376 23.9616 67.7888 31.3344 5.5296 2.2528 9.0112 7.168 9.0112 12.9024 0.2048 13.1072-17.8176 29.696-27.648 35.0208-2.6624 3.072-4.096 6.9632-4.096 11.264v1.4336c-10.4448 73.3184-66.1504 230.8096-171.4176 249.856l-0.8192 0.2048h-1.024c-11.8784 0-21.504-4.9152-28.0576-14.1312-22.528-31.744-1.8432-113.8688 10.8544-155.648-25.8048 14.1312-70.8608 41.5744-115.712 82.1248-90.112 81.5104-135.5776 174.08-135.5776 275.456 0 5.7344-4.5056 10.24-10.24 10.24s-10.24-4.5056-10.24-10.24c0-59.1872 15.1552-116.5312 44.8512-170.1888 23.7568-42.8032 56.7296-83.3536 97.8944-120.6272 70.0416-63.2832 139.264-94.8224 142.1312-96.256l21.7088-9.8304-7.9872 22.528c-17.2032 49.3568-38.2976 136.6016-21.0944 160.768 2.4576 3.6864 5.9392 5.3248 10.6496 5.5296 92.3648-17.8176 143.9744-165.888 153.6-231.8336 0.2048-10.0352 3.8912-19.0464 11.0592-26.2144l1.4336-1.4336 1.8432-0.8192c3.4816-1.4336 11.0592-8.3968 14.9504-13.7216-19.2512-7.5776-44.2368-18.432-64.3072-30.3104-6.7584-4.096-11.0592-11.264-11.264-19.0464-0.2048-7.7824 3.4816-15.1552 10.0352-19.456 31.744-21.504 77.2096-18.6368 101.376-14.9504 28.4672 4.3008 63.6928 15.36 73.728 29.696 3.4816 4.9152 5.5296 9.4208 6.144 13.7216 1.024 7.168-1.8432 13.5168-7.7824 17.8176-2.2528 1.6384-4.096 3.072-5.7344 4.3008 52.0192-9.0112 100.1472-12.0832 126.3616-13.1072-22.528-23.9616-72.4992-66.9696-155.648-91.5456-119.3984-35.0208-261.3248-19.0464-421.4784 47.7184l-0.6144 0.2048-0.8192 0.2048c-1.6384 0.4096-38.7072 9.4208-94.0032 0.2048-54.8864-9.0112-144.384-5.3248-184.32 27.648 59.8016 9.4208 103.2192 30.1056 129.024 61.8496 22.3232 27.2384 22.528 52.6336 22.528 53.6576v2.8672l-1.6384 2.4576c-0.6144 1.024-60.2112 96.8704-77.6192 227.1232C123.904 668.8768 176.128 812.2368 301.4656 929.792c-1.2288-28.2624-1.4336-72.4992 7.5776-97.4848-17.8176-11.8784-38.0928-31.9488-38.912-32.768l-22.528-22.528 31.5392 5.3248c1.8432 0.2048 47.104 6.7584 70.0416-39.5264 2.8672-5.7344 6.5536-10.8544 10.4448-14.9504-22.1184-1.6384-57.5488-2.4576-98.7136 2.6624-5.5296 0.6144-10.6496-3.2768-11.4688-8.8064-0.6144-5.5296 3.2768-10.6496 8.8064-11.4688 72.4992-9.0112 126.5664-0.4096 128.8192 0l31.1296 5.12-28.2624 14.1312c-0.2048 0-15.1552 7.7824-22.528 22.528-16.1792 32.5632-42.5984 45.8752-64.7168 49.9712 8.192 6.9632 17.2032 13.9264 24.1664 17.408l10.4448 5.12-6.3488 9.6256c-11.6736 17.408-10.6496 82.5344-7.3728 119.3984l2.2528 25.1904zM794.0096 185.1392z m143.9744-6.144z" fill="#1296db" p-id="4082"></path><path d="M745.472 469.8112h-1.024l-1.024-0.2048c-60.6208-12.0832-70.2464-80.2816-66.7648-114.4832 0.6144-5.5296 5.5296-9.8304 11.264-9.216 5.5296 0.6144 9.8304 5.5296 9.216 11.264-0.4096 3.2768-6.9632 79.872 49.152 92.16 13.9264-1.8432 29.4912-50.3808 29.4912-93.184 0-40.96 11.8784-52.6336 58.9824-80.6912 36.4544-21.9136 80.896-53.0432 99.1232-98.5088 2.048-5.3248 7.9872-7.7824 13.312-5.7344s7.7824 7.9872 5.7344 13.312c-20.48 51.2-68.4032 84.7872-107.7248 108.3392-44.032 26.2144-49.152 32.768-49.152 63.0784 0.2048 35.84-12.4928 113.8688-50.5856 113.8688z" fill="#1296db" p-id="4083"></path></svg>